M48
;Layer_Color=9474304
;FILE_FORMAT=4:2
METRIC,LZ
;TYPE=PLATED
T1F00S00C0.80
T2F00S00C0.85
T3F00S00C0.90
T4F00S00C1.00
T5F00S00C1.10
T6F00S00C1.20
T7F00S00C1.30
%
T01
X0086Y00585
X0091Y00585
X009538Y00574
X009792
X010046
X0103
X010554
X010808
X011062
X011316
Y006502
X011062
X010808
X010554
X0103
X010046
X009792
X009538
X00776Y005512
Y005258
X006363Y005245
Y005499
X00646Y00595
X00596Y00595
T02
X008041Y00591
X007279
X005821Y00807
Y00849
X005059
Y00807
T03
X009106Y005372
X00936
X004574Y00542
X00432
X00391Y00835
X003783
X00342Y009788
Y010042
Y010296
Y01055
X004037Y00835
X01428Y01068
Y010934
T04
X008852Y007429
Y007683
X006375
Y007429
Y007938
Y008192
Y008446
Y0087
Y008954
Y009207
Y009461
Y009715
Y009969
Y010224
Y010478
Y010732
Y010986
X008852
Y010732
Y010478
Y010224
Y009969
Y009715
Y009461
Y009207
Y008954
Y0087
Y008446
Y008192
Y007938
X009464Y009647
Y011557
X013564
Y009647
X013468Y009034
X013214
X01296
X012706
T05
X00936Y007379
Y007633
Y007887
X01156
Y007633
Y007379
Y007125
Y008141
Y008395
X00936
Y008649
Y008141
T06
X00338Y006597
Y007643
T07
X00417Y00642
X00397Y00702
X00417Y00762
X00539
Y00642
M30
