G04*
G04 #@! TF.GenerationSoftware,Altium Limited,Altium Designer,22.2.1 (43)*
G04*
G04 Layer_Physical_Order=2*
G04 Layer_Color=16711680*
%FSLAX42Y42*%
%MOMM*%
G71*
G04*
G04 #@! TF.SameCoordinates,38A85AE6-A4D5-4193-AC1F-1DFF1A3BB725*
G04*
G04*
G04 #@! TF.FilePolarity,Positive*
G04*
G01*
G75*
%ADD13C,0.20*%
%ADD14C,0.25*%
%ADD34C,0.51*%
%ADD35C,1.40*%
%ADD36R,1.40X1.40*%
%ADD37R,1.80X1.80*%
%ADD38C,1.80*%
%ADD39C,1.93*%
%ADD40R,2.00X2.00*%
%ADD41C,1.50*%
%ADD42R,1.50X1.50*%
%ADD43C,1.95*%
%ADD44C,1.35*%
%ADD45R,1.35X1.35*%
%ADD46R,1.50X1.50*%
%ADD47C,1.60*%
%ADD48C,2.00*%
%ADD49O,1.00X2.00*%
%ADD50O,1.00X2.00*%
G36*
X14413Y12416D02*
X14437Y12406D01*
X14457Y12392D01*
X14475Y12375D01*
X14489Y12354D01*
X14499Y12331D01*
X14503Y12306D01*
Y12294D01*
Y5042D01*
Y5029D01*
X14499Y5005D01*
X14489Y4982D01*
X14475Y4961D01*
X14457Y4943D01*
X14437Y4929D01*
X14413Y4920D01*
X14389Y4915D01*
X2896D01*
X2871Y4920D01*
X2848Y4929D01*
X2827Y4943D01*
X2810Y4961D01*
X2796Y4982D01*
X2786Y5005D01*
X2781Y5029D01*
Y5042D01*
Y12294D01*
Y12306D01*
X2786Y12331D01*
X2796Y12354D01*
X2810Y12375D01*
X2827Y12392D01*
X2848Y12406D01*
X2871Y12416D01*
X2896Y12421D01*
X14389D01*
X14413Y12416D01*
D02*
G37*
%LPC*%
G36*
X14125Y12296D02*
X14075D01*
X14073Y12295D01*
X14070D01*
X14022Y12286D01*
X14020Y12285D01*
X14017Y12284D01*
X13972Y12265D01*
X13970Y12264D01*
X13967Y12263D01*
X13926Y12236D01*
X13924Y12234D01*
X13922Y12232D01*
X13888Y12198D01*
X13886Y12196D01*
X13884Y12194D01*
X13857Y12153D01*
X13856Y12150D01*
X13855Y12148D01*
X13836Y12103D01*
X13835Y12100D01*
X13834Y12098D01*
X13825Y12050D01*
Y12047D01*
X13824Y12045D01*
Y11995D01*
X13825Y11993D01*
Y11990D01*
X13834Y11942D01*
X13835Y11940D01*
X13836Y11937D01*
X13855Y11892D01*
X13856Y11890D01*
X13857Y11887D01*
X13884Y11846D01*
X13886Y11844D01*
X13888Y11842D01*
X13922Y11807D01*
X13924Y11806D01*
X13926Y11804D01*
X13967Y11777D01*
X13970Y11776D01*
X13972Y11775D01*
X14017Y11756D01*
X14020Y11755D01*
X14022Y11754D01*
X14070Y11745D01*
X14073D01*
X14075Y11744D01*
X14125D01*
X14127Y11745D01*
X14130D01*
X14178Y11754D01*
X14180Y11755D01*
X14183Y11756D01*
X14228Y11775D01*
X14230Y11776D01*
X14233Y11777D01*
X14274Y11804D01*
X14276Y11806D01*
X14278Y11807D01*
X14312Y11842D01*
X14314Y11844D01*
X14316Y11846D01*
X14343Y11887D01*
X14344Y11890D01*
X14345Y11892D01*
X14364Y11937D01*
X14365Y11940D01*
X14366Y11942D01*
X14375Y11990D01*
Y11993D01*
X14376Y11995D01*
Y12045D01*
X14375Y12047D01*
Y12050D01*
X14366Y12098D01*
X14365Y12100D01*
X14364Y12103D01*
X14345Y12148D01*
X14344Y12150D01*
X14343Y12153D01*
X14316Y12194D01*
X14314Y12196D01*
X14312Y12198D01*
X14278Y12232D01*
X14276Y12234D01*
X14274Y12236D01*
X14233Y12263D01*
X14230Y12264D01*
X14228Y12265D01*
X14183Y12284D01*
X14180Y12285D01*
X14178Y12286D01*
X14130Y12295D01*
X14127D01*
X14125Y12296D01*
D02*
G37*
G36*
X3205D02*
X3155D01*
X3153Y12295D01*
X3150D01*
X3102Y12286D01*
X3100Y12285D01*
X3097Y12284D01*
X3052Y12265D01*
X3050Y12264D01*
X3047Y12263D01*
X3006Y12236D01*
X3004Y12234D01*
X3002Y12232D01*
X2967Y12198D01*
X2966Y12196D01*
X2964Y12194D01*
X2937Y12153D01*
X2936Y12150D01*
X2935Y12148D01*
X2916Y12103D01*
X2915Y12100D01*
X2914Y12098D01*
X2905Y12050D01*
Y12047D01*
X2904Y12045D01*
Y11995D01*
X2905Y11993D01*
Y11990D01*
X2914Y11942D01*
X2915Y11940D01*
X2916Y11937D01*
X2935Y11892D01*
X2936Y11890D01*
X2937Y11887D01*
X2964Y11846D01*
X2966Y11844D01*
X2967Y11842D01*
X3002Y11807D01*
X3004Y11806D01*
X3006Y11804D01*
X3047Y11777D01*
X3050Y11776D01*
X3052Y11775D01*
X3097Y11756D01*
X3100Y11755D01*
X3102Y11754D01*
X3150Y11745D01*
X3153D01*
X3155Y11744D01*
X3205D01*
X3207Y11745D01*
X3210D01*
X3258Y11754D01*
X3260Y11755D01*
X3263Y11756D01*
X3308Y11775D01*
X3310Y11776D01*
X3313Y11777D01*
X3354Y11804D01*
X3356Y11806D01*
X3358Y11807D01*
X3392Y11842D01*
X3394Y11844D01*
X3396Y11846D01*
X3423Y11887D01*
X3424Y11890D01*
X3425Y11892D01*
X3444Y11937D01*
X3445Y11940D01*
X3446Y11942D01*
X3455Y11990D01*
Y11993D01*
X3456Y11995D01*
Y12045D01*
X3455Y12047D01*
Y12050D01*
X3446Y12098D01*
X3445Y12100D01*
X3444Y12103D01*
X3425Y12148D01*
X3424Y12150D01*
X3423Y12153D01*
X3396Y12194D01*
X3394Y12196D01*
X3392Y12198D01*
X3358Y12232D01*
X3356Y12234D01*
X3354Y12236D01*
X3313Y12263D01*
X3310Y12264D01*
X3308Y12265D01*
X3263Y12284D01*
X3260Y12285D01*
X3258Y12286D01*
X3210Y12295D01*
X3207D01*
X3205Y12296D01*
D02*
G37*
G36*
X13689Y11682D02*
X13438D01*
Y11432D01*
X13689D01*
Y11682D01*
D02*
G37*
G36*
X9589D02*
X9338D01*
Y11432D01*
X9589D01*
Y11682D01*
D02*
G37*
G36*
X14380Y11034D02*
X14180D01*
Y10834D01*
X14380D01*
Y11034D01*
D02*
G37*
G36*
X14293Y10780D02*
Y10693D01*
X14380D01*
X14378Y10706D01*
X14368Y10731D01*
X14352Y10752D01*
X14331Y10768D01*
X14306Y10778D01*
X14293Y10780D01*
D02*
G37*
G36*
X14267D02*
X14254Y10778D01*
X14229Y10768D01*
X14208Y10752D01*
X14192Y10731D01*
X14182Y10706D01*
X14180Y10693D01*
X14267D01*
Y10780D01*
D02*
G37*
G36*
X14380Y10667D02*
X14293D01*
Y10580D01*
X14306Y10582D01*
X14331Y10592D01*
X14352Y10608D01*
X14368Y10629D01*
X14378Y10654D01*
X14380Y10667D01*
D02*
G37*
G36*
X14267D02*
X14180D01*
X14182Y10654D01*
X14192Y10629D01*
X14208Y10608D01*
X14229Y10592D01*
X14254Y10582D01*
X14267Y10580D01*
Y10667D01*
D02*
G37*
G36*
X3420Y9889D02*
X3394Y9886D01*
X3369Y9876D01*
X3348Y9860D01*
X3332Y9839D01*
X3322Y9814D01*
X3319Y9788D01*
X3322Y9762D01*
X3332Y9737D01*
X3348Y9716D01*
X3369Y9700D01*
X3394Y9690D01*
X3420Y9687D01*
X3446Y9690D01*
X3471Y9700D01*
X3492Y9716D01*
X3508Y9737D01*
X3518Y9762D01*
X3521Y9788D01*
X3518Y9814D01*
X3508Y9839D01*
X3492Y9860D01*
X3471Y9876D01*
X3446Y9886D01*
X3420Y9889D01*
D02*
G37*
G36*
X13689Y9772D02*
X13576D01*
Y9660D01*
X13689D01*
Y9772D01*
D02*
G37*
G36*
X13551D02*
X13438D01*
Y9660D01*
X13551D01*
Y9772D01*
D02*
G37*
G36*
X13689Y9634D02*
X13576D01*
Y9522D01*
X13689D01*
Y9634D01*
D02*
G37*
G36*
X13551D02*
X13438D01*
Y9522D01*
X13551D01*
Y9634D01*
D02*
G37*
G36*
X9589Y9772D02*
X9338D01*
Y9522D01*
X9589D01*
Y9772D01*
D02*
G37*
G36*
X13468Y9151D02*
X13438Y9147D01*
X13410Y9135D01*
X13386Y9117D01*
X13367Y9092D01*
X13355Y9064D01*
X13352Y9034D01*
X13355Y9004D01*
X13367Y8976D01*
X13386Y8952D01*
X13410Y8933D01*
X13438Y8922D01*
X13468Y8918D01*
X13498Y8922D01*
X13526Y8933D01*
X13550Y8952D01*
X13569Y8976D01*
X13580Y9004D01*
X13584Y9034D01*
X13580Y9064D01*
X13569Y9092D01*
X13550Y9117D01*
X13526Y9135D01*
X13498Y9147D01*
X13468Y9151D01*
D02*
G37*
G36*
X4037Y8476D02*
X4017Y8473D01*
X3999Y8466D01*
X3983Y8454D01*
X3980Y8449D01*
X3967D01*
X3964Y8454D01*
X3948Y8466D01*
X3930Y8473D01*
X3910Y8476D01*
X3890Y8473D01*
X3872Y8466D01*
X3856Y8454D01*
X3853Y8449D01*
X3840D01*
X3837Y8454D01*
X3821Y8466D01*
X3803Y8473D01*
X3783Y8476D01*
X3763Y8473D01*
X3745Y8466D01*
X3729Y8454D01*
X3717Y8438D01*
X3710Y8420D01*
X3707Y8400D01*
Y8300D01*
X3710Y8280D01*
X3717Y8262D01*
X3729Y8246D01*
X3745Y8234D01*
X3763Y8227D01*
X3783Y8224D01*
X3803Y8227D01*
X3821Y8234D01*
X3837Y8246D01*
X3840Y8251D01*
X3853D01*
X3856Y8246D01*
X3872Y8234D01*
X3890Y8227D01*
X3910Y8224D01*
X3930Y8227D01*
X3948Y8234D01*
X3964Y8246D01*
X3967Y8251D01*
X3980D01*
X3983Y8246D01*
X3999Y8234D01*
X4017Y8227D01*
X4037Y8224D01*
X4057Y8227D01*
X4075Y8234D01*
X4091Y8246D01*
X4103Y8262D01*
X4110Y8280D01*
X4113Y8300D01*
Y8400D01*
X4110Y8420D01*
X4103Y8438D01*
X4091Y8454D01*
X4075Y8466D01*
X4057Y8473D01*
X4037Y8476D01*
D02*
G37*
G36*
X5821Y8586D02*
X5796Y8583D01*
X5773Y8573D01*
X5753Y8558D01*
X5738Y8538D01*
X5728Y8515D01*
X5725Y8490D01*
X5728Y8465D01*
X5738Y8442D01*
X5753Y8422D01*
X5773Y8407D01*
X5796Y8397D01*
X5821Y8394D01*
X5846Y8397D01*
X5869Y8407D01*
X5889Y8422D01*
X5904Y8442D01*
X5914Y8465D01*
X5917Y8490D01*
X5914Y8515D01*
X5904Y8538D01*
X5889Y8558D01*
X5869Y8573D01*
X5846Y8583D01*
X5821Y8586D01*
D02*
G37*
G36*
X5059D02*
X5034Y8583D01*
X5011Y8573D01*
X4991Y8558D01*
X4976Y8538D01*
X4966Y8515D01*
X4963Y8490D01*
X4966Y8465D01*
X4976Y8442D01*
X4991Y8422D01*
X5011Y8407D01*
X5034Y8397D01*
X5059Y8394D01*
X5084Y8397D01*
X5107Y8407D01*
X5127Y8422D01*
X5142Y8442D01*
X5152Y8465D01*
X5155Y8490D01*
X5152Y8515D01*
X5142Y8538D01*
X5127Y8558D01*
X5107Y8573D01*
X5084Y8583D01*
X5059Y8586D01*
D02*
G37*
G36*
X11675Y8510D02*
X11444D01*
Y8279D01*
X11675D01*
Y8510D01*
D02*
G37*
G36*
X9360Y8511D02*
X9330Y8507D01*
X9302Y8496D01*
X9278Y8477D01*
X9259Y8453D01*
X9247Y8425D01*
X9244Y8395D01*
X9247Y8365D01*
X9259Y8337D01*
X9278Y8312D01*
X9302Y8294D01*
X9330Y8282D01*
X9360Y8278D01*
X9390Y8282D01*
X9418Y8294D01*
X9442Y8312D01*
X9461Y8337D01*
X9472Y8365D01*
X9476Y8395D01*
X9472Y8425D01*
X9461Y8453D01*
X9442Y8477D01*
X9418Y8496D01*
X9390Y8507D01*
X9360Y8511D01*
D02*
G37*
G36*
X11560Y8257D02*
X11530Y8253D01*
X11502Y8242D01*
X11478Y8223D01*
X11459Y8199D01*
X11447Y8171D01*
X11444Y8141D01*
X11447Y8111D01*
X11459Y8083D01*
X11478Y8058D01*
X11502Y8040D01*
X11530Y8028D01*
X11560Y8024D01*
X11590Y8028D01*
X11618Y8040D01*
X11642Y8058D01*
X11661Y8083D01*
X11672Y8111D01*
X11676Y8141D01*
X11672Y8171D01*
X11661Y8199D01*
X11642Y8223D01*
X11618Y8242D01*
X11590Y8253D01*
X11560Y8257D01*
D02*
G37*
G36*
X5821Y8166D02*
X5796Y8163D01*
X5773Y8153D01*
X5753Y8138D01*
X5738Y8118D01*
X5728Y8095D01*
X5725Y8070D01*
X5728Y8045D01*
X5738Y8022D01*
X5753Y8002D01*
X5773Y7987D01*
X5796Y7977D01*
X5821Y7974D01*
X5846Y7977D01*
X5869Y7987D01*
X5889Y8002D01*
X5904Y8022D01*
X5914Y8045D01*
X5917Y8070D01*
X5914Y8095D01*
X5904Y8118D01*
X5889Y8138D01*
X5869Y8153D01*
X5846Y8163D01*
X5821Y8166D01*
D02*
G37*
G36*
X11560Y8003D02*
X11530Y7999D01*
X11502Y7988D01*
X11478Y7969D01*
X11459Y7945D01*
X11447Y7917D01*
X11444Y7887D01*
X11447Y7857D01*
X11459Y7829D01*
X11478Y7804D01*
X11502Y7786D01*
X11530Y7774D01*
X11560Y7770D01*
X11590Y7774D01*
X11618Y7786D01*
X11642Y7804D01*
X11661Y7829D01*
X11672Y7857D01*
X11676Y7887D01*
X11672Y7917D01*
X11661Y7945D01*
X11642Y7969D01*
X11618Y7988D01*
X11590Y7999D01*
X11560Y8003D01*
D02*
G37*
G36*
X3380Y7769D02*
X3347Y7765D01*
X3317Y7753D01*
X3291Y7732D01*
X3270Y7706D01*
X3258Y7676D01*
X3254Y7643D01*
X3258Y7610D01*
X3270Y7580D01*
X3291Y7554D01*
X3317Y7533D01*
X3347Y7521D01*
X3380Y7517D01*
X3413Y7521D01*
X3443Y7533D01*
X3469Y7554D01*
X3490Y7580D01*
X3502Y7610D01*
X3506Y7643D01*
X3502Y7676D01*
X3490Y7706D01*
X3469Y7732D01*
X3443Y7753D01*
X3413Y7765D01*
X3380Y7769D01*
D02*
G37*
G36*
X11560Y7749D02*
X11530Y7745D01*
X11502Y7734D01*
X11478Y7715D01*
X11459Y7691D01*
X11447Y7663D01*
X11444Y7633D01*
X11447Y7603D01*
X11459Y7575D01*
X11478Y7550D01*
X11502Y7532D01*
X11530Y7520D01*
X11560Y7516D01*
X11590Y7520D01*
X11618Y7532D01*
X11642Y7550D01*
X11661Y7575D01*
X11672Y7603D01*
X11676Y7633D01*
X11672Y7663D01*
X11661Y7691D01*
X11642Y7715D01*
X11618Y7734D01*
X11590Y7745D01*
X11560Y7749D01*
D02*
G37*
G36*
X5390Y7744D02*
X5358Y7740D01*
X5328Y7727D01*
X5302Y7708D01*
X5283Y7682D01*
X5270Y7652D01*
X5266Y7620D01*
X5270Y7588D01*
X5283Y7558D01*
X5302Y7532D01*
X5328Y7513D01*
X5358Y7500D01*
X5390Y7496D01*
X5422Y7500D01*
X5452Y7513D01*
X5478Y7532D01*
X5497Y7558D01*
X5510Y7588D01*
X5514Y7620D01*
X5510Y7652D01*
X5497Y7682D01*
X5478Y7708D01*
X5452Y7727D01*
X5422Y7740D01*
X5390Y7744D01*
D02*
G37*
G36*
X4170D02*
X4138Y7740D01*
X4108Y7727D01*
X4082Y7708D01*
X4063Y7682D01*
X4050Y7652D01*
X4046Y7620D01*
X4050Y7588D01*
X4063Y7558D01*
X4082Y7532D01*
X4108Y7513D01*
X4138Y7500D01*
X4170Y7496D01*
X4202Y7500D01*
X4232Y7513D01*
X4258Y7532D01*
X4277Y7558D01*
X4290Y7588D01*
X4294Y7620D01*
X4290Y7652D01*
X4277Y7682D01*
X4258Y7708D01*
X4232Y7727D01*
X4202Y7740D01*
X4170Y7744D01*
D02*
G37*
G36*
X8153Y11482D02*
X4122D01*
X4102Y11478D01*
X4085Y11467D01*
X3258Y10639D01*
X3246Y10622D01*
X3242Y10602D01*
Y10422D01*
X3246Y10402D01*
X3258Y10385D01*
X3322Y10321D01*
X3319Y10296D01*
X3322Y10270D01*
X3332Y10245D01*
X3348Y10224D01*
X3369Y10208D01*
X3394Y10198D01*
X3420Y10195D01*
X3446Y10198D01*
X3471Y10208D01*
X3492Y10224D01*
X3508Y10245D01*
X3518Y10270D01*
X3521Y10296D01*
X3518Y10322D01*
X3508Y10347D01*
X3492Y10368D01*
X3471Y10384D01*
X3446Y10394D01*
X3420Y10397D01*
X3395Y10394D01*
X3346Y10443D01*
Y10464D01*
X3359Y10470D01*
X3369Y10462D01*
X3394Y10452D01*
X3420Y10449D01*
X3446Y10452D01*
X3471Y10462D01*
X3492Y10478D01*
X3508Y10499D01*
X3518Y10524D01*
X3521Y10550D01*
X3518Y10575D01*
X4161Y11218D01*
X7530D01*
X8737Y10011D01*
X8733Y10001D01*
X8729Y9969D01*
X8733Y9938D01*
X8745Y9908D01*
X8765Y9883D01*
X8790Y9863D01*
X8820Y9851D01*
X8834Y9849D01*
Y9836D01*
X8820Y9834D01*
X8790Y9822D01*
X8765Y9802D01*
X8745Y9777D01*
X8733Y9747D01*
X8729Y9715D01*
X8733Y9684D01*
X8745Y9654D01*
X8765Y9629D01*
X8790Y9609D01*
X8820Y9597D01*
X8834Y9595D01*
Y9582D01*
X8820Y9580D01*
X8790Y9568D01*
X8765Y9548D01*
X8745Y9523D01*
X8733Y9493D01*
X8729Y9461D01*
X8733Y9430D01*
X8745Y9400D01*
X8765Y9375D01*
X8790Y9355D01*
X8820Y9343D01*
X8834Y9341D01*
Y9328D01*
X8820Y9326D01*
X8790Y9314D01*
X8765Y9294D01*
X8745Y9269D01*
X8733Y9239D01*
X8729Y9207D01*
X8733Y9176D01*
X8745Y9146D01*
X8765Y9121D01*
X8790Y9101D01*
X8820Y9089D01*
X8834Y9087D01*
Y9074D01*
X8820Y9072D01*
X8790Y9060D01*
X8765Y9040D01*
X8745Y9015D01*
X8733Y8985D01*
X8729Y8954D01*
X8733Y8922D01*
X8745Y8892D01*
X8765Y8867D01*
X8790Y8847D01*
X8820Y8835D01*
X8834Y8833D01*
Y8820D01*
X8820Y8818D01*
X8790Y8806D01*
X8765Y8786D01*
X8745Y8761D01*
X8733Y8731D01*
X8729Y8700D01*
X8733Y8668D01*
X8745Y8638D01*
X8765Y8613D01*
X8790Y8593D01*
X8820Y8581D01*
X8834Y8579D01*
Y8566D01*
X8820Y8564D01*
X8790Y8552D01*
X8765Y8532D01*
X8745Y8507D01*
X8733Y8477D01*
X8729Y8446D01*
X8733Y8414D01*
X8745Y8384D01*
X8765Y8359D01*
X8790Y8339D01*
X8820Y8327D01*
X8834Y8325D01*
Y8312D01*
X8820Y8310D01*
X8790Y8298D01*
X8765Y8278D01*
X8745Y8253D01*
X8733Y8223D01*
X8729Y8192D01*
X8733Y8160D01*
X8745Y8130D01*
X8765Y8105D01*
X8790Y8085D01*
X8820Y8073D01*
X8834Y8071D01*
Y8058D01*
X8820Y8056D01*
X8790Y8044D01*
X8765Y8024D01*
X8745Y7999D01*
X8733Y7969D01*
X8729Y7938D01*
X8733Y7906D01*
X8745Y7876D01*
X8765Y7851D01*
X8790Y7831D01*
X8820Y7819D01*
X8834Y7817D01*
Y7804D01*
X8820Y7802D01*
X8790Y7790D01*
X8765Y7770D01*
X8745Y7745D01*
X8733Y7715D01*
X8729Y7683D01*
X8733Y7652D01*
X8745Y7622D01*
X8765Y7597D01*
X8790Y7577D01*
X8820Y7565D01*
X8834Y7563D01*
Y7550D01*
X8820Y7548D01*
X8790Y7536D01*
X8765Y7516D01*
X8745Y7491D01*
X8741Y7481D01*
X6702D01*
Y10919D01*
X6698Y10939D01*
X6687Y10955D01*
X6473Y11169D01*
X6456Y11181D01*
X6436Y11185D01*
X6243D01*
X6223Y11181D01*
X6206Y11169D01*
X6053Y11017D01*
X6042Y11000D01*
X6038Y10980D01*
Y9195D01*
X6026Y9190D01*
X5109Y10108D01*
X5092Y10120D01*
X5072Y10124D01*
X3499D01*
X3483Y10120D01*
X3471Y10130D01*
X3446Y10140D01*
X3420Y10143D01*
X3394Y10140D01*
X3369Y10130D01*
X3348Y10114D01*
X3332Y10093D01*
X3322Y10068D01*
X3319Y10042D01*
X3322Y10016D01*
X3332Y9991D01*
X3348Y9970D01*
X3369Y9954D01*
X3394Y9944D01*
X3420Y9941D01*
X3446Y9944D01*
X3471Y9954D01*
X3492Y9970D01*
X3508Y9991D01*
X3518Y10016D01*
X3518Y10020D01*
X3519Y10020D01*
X5050D01*
X5982Y9089D01*
X5998Y9078D01*
X6018Y9074D01*
X6060D01*
X6080Y9078D01*
X6097Y9089D01*
X6127Y9119D01*
X6127Y9119D01*
X6138Y9135D01*
X6142Y9155D01*
Y10959D01*
X6264Y11081D01*
X6279D01*
X6285Y11068D01*
X6268Y11047D01*
X6256Y11017D01*
X6252Y10986D01*
X6256Y10954D01*
X6268Y10924D01*
X6288Y10899D01*
X6313Y10879D01*
X6343Y10867D01*
X6357Y10865D01*
Y10852D01*
X6343Y10850D01*
X6313Y10838D01*
X6288Y10818D01*
X6268Y10793D01*
X6256Y10763D01*
X6252Y10732D01*
X6256Y10700D01*
X6268Y10670D01*
X6288Y10645D01*
X6313Y10625D01*
X6343Y10613D01*
X6357Y10611D01*
Y10598D01*
X6343Y10596D01*
X6313Y10584D01*
X6288Y10564D01*
X6268Y10539D01*
X6256Y10509D01*
X6252Y10478D01*
X6256Y10446D01*
X6268Y10416D01*
X6288Y10391D01*
X6313Y10371D01*
X6343Y10359D01*
X6357Y10357D01*
Y10344D01*
X6343Y10342D01*
X6313Y10330D01*
X6288Y10310D01*
X6268Y10285D01*
X6256Y10255D01*
X6252Y10224D01*
X6256Y10192D01*
X6268Y10162D01*
X6288Y10137D01*
X6313Y10117D01*
X6343Y10105D01*
X6357Y10103D01*
Y10090D01*
X6343Y10088D01*
X6313Y10076D01*
X6288Y10056D01*
X6268Y10031D01*
X6256Y10001D01*
X6252Y9969D01*
X6256Y9938D01*
X6268Y9908D01*
X6288Y9883D01*
X6313Y9863D01*
X6343Y9851D01*
X6357Y9849D01*
Y9836D01*
X6343Y9834D01*
X6313Y9822D01*
X6288Y9802D01*
X6268Y9777D01*
X6256Y9747D01*
X6252Y9715D01*
X6256Y9684D01*
X6268Y9654D01*
X6288Y9629D01*
X6313Y9609D01*
X6343Y9597D01*
X6357Y9595D01*
Y9582D01*
X6343Y9580D01*
X6313Y9568D01*
X6288Y9548D01*
X6268Y9523D01*
X6256Y9493D01*
X6252Y9461D01*
X6256Y9430D01*
X6268Y9400D01*
X6288Y9375D01*
X6313Y9355D01*
X6343Y9343D01*
X6357Y9341D01*
Y9328D01*
X6343Y9326D01*
X6313Y9314D01*
X6288Y9294D01*
X6268Y9269D01*
X6256Y9239D01*
X6252Y9207D01*
X6256Y9176D01*
X6268Y9146D01*
X6288Y9121D01*
X6313Y9101D01*
X6343Y9089D01*
X6357Y9087D01*
Y9074D01*
X6343Y9072D01*
X6313Y9060D01*
X6288Y9040D01*
X6268Y9015D01*
X6256Y8985D01*
X6252Y8954D01*
X6256Y8922D01*
X6268Y8892D01*
X6288Y8867D01*
X6313Y8847D01*
X6343Y8835D01*
X6357Y8833D01*
Y8820D01*
X6343Y8818D01*
X6313Y8806D01*
X6288Y8786D01*
X6268Y8761D01*
X6256Y8731D01*
X6252Y8700D01*
X6256Y8668D01*
X6268Y8638D01*
X6288Y8613D01*
X6313Y8593D01*
X6343Y8581D01*
X6357Y8579D01*
Y8566D01*
X6343Y8564D01*
X6313Y8552D01*
X6288Y8532D01*
X6268Y8507D01*
X6256Y8477D01*
X6252Y8446D01*
X6256Y8414D01*
X6268Y8384D01*
X6288Y8359D01*
X6313Y8339D01*
X6343Y8327D01*
X6357Y8325D01*
Y8312D01*
X6343Y8310D01*
X6313Y8298D01*
X6288Y8278D01*
X6268Y8253D01*
X6256Y8223D01*
X6252Y8192D01*
X6256Y8160D01*
X6268Y8130D01*
X6288Y8105D01*
X6313Y8085D01*
X6343Y8073D01*
X6357Y8071D01*
Y8058D01*
X6343Y8056D01*
X6313Y8044D01*
X6288Y8024D01*
X6268Y7999D01*
X6256Y7969D01*
X6252Y7938D01*
X6256Y7906D01*
X6268Y7876D01*
X6288Y7851D01*
X6313Y7831D01*
X6343Y7819D01*
X6357Y7817D01*
Y7804D01*
X6343Y7802D01*
X6313Y7790D01*
X6288Y7770D01*
X6268Y7745D01*
X6256Y7715D01*
X6252Y7683D01*
X6256Y7652D01*
X6268Y7622D01*
X6288Y7597D01*
X6313Y7577D01*
X6343Y7565D01*
X6357Y7563D01*
Y7550D01*
X6343Y7548D01*
X6313Y7536D01*
X6288Y7516D01*
X6268Y7491D01*
X6256Y7461D01*
X6252Y7429D01*
X6256Y7398D01*
X6268Y7368D01*
X6288Y7343D01*
X6313Y7323D01*
X6343Y7311D01*
X6375Y7307D01*
X6407Y7311D01*
X6416Y7315D01*
X6798Y6933D01*
X6815Y6922D01*
X6834Y6918D01*
X7459D01*
X8507Y5870D01*
Y5757D01*
X8693D01*
Y5943D01*
X8580D01*
X7517Y7007D01*
X7500Y7018D01*
X7480Y7022D01*
X6856D01*
X6490Y7388D01*
X6494Y7398D01*
X6498Y7429D01*
X6494Y7461D01*
X6481Y7491D01*
X6462Y7516D01*
X6436Y7536D01*
X6407Y7548D01*
X6393Y7550D01*
Y7563D01*
X6407Y7565D01*
X6436Y7577D01*
X6462Y7597D01*
X6481Y7622D01*
X6494Y7652D01*
X6498Y7683D01*
X6494Y7715D01*
X6481Y7745D01*
X6462Y7770D01*
X6436Y7790D01*
X6407Y7802D01*
X6393Y7804D01*
Y7817D01*
X6407Y7819D01*
X6436Y7831D01*
X6462Y7851D01*
X6481Y7876D01*
X6494Y7906D01*
X6498Y7938D01*
X6494Y7969D01*
X6481Y7999D01*
X6462Y8024D01*
X6436Y8044D01*
X6407Y8056D01*
X6393Y8058D01*
Y8071D01*
X6407Y8073D01*
X6436Y8085D01*
X6462Y8105D01*
X6481Y8130D01*
X6494Y8160D01*
X6498Y8192D01*
X6494Y8223D01*
X6481Y8253D01*
X6462Y8278D01*
X6436Y8298D01*
X6407Y8310D01*
X6393Y8312D01*
Y8325D01*
X6407Y8327D01*
X6436Y8339D01*
X6462Y8359D01*
X6481Y8384D01*
X6494Y8414D01*
X6498Y8446D01*
X6494Y8477D01*
X6481Y8507D01*
X6462Y8532D01*
X6436Y8552D01*
X6407Y8564D01*
X6393Y8566D01*
Y8579D01*
X6407Y8581D01*
X6436Y8593D01*
X6462Y8613D01*
X6481Y8638D01*
X6494Y8668D01*
X6498Y8700D01*
X6494Y8731D01*
X6481Y8761D01*
X6462Y8786D01*
X6436Y8806D01*
X6407Y8818D01*
X6393Y8820D01*
Y8833D01*
X6407Y8835D01*
X6436Y8847D01*
X6462Y8867D01*
X6481Y8892D01*
X6494Y8922D01*
X6498Y8954D01*
X6494Y8985D01*
X6481Y9015D01*
X6462Y9040D01*
X6436Y9060D01*
X6407Y9072D01*
X6393Y9074D01*
Y9087D01*
X6407Y9089D01*
X6436Y9101D01*
X6462Y9121D01*
X6481Y9146D01*
X6494Y9176D01*
X6498Y9207D01*
X6494Y9239D01*
X6481Y9269D01*
X6462Y9294D01*
X6436Y9314D01*
X6407Y9326D01*
X6393Y9328D01*
Y9341D01*
X6407Y9343D01*
X6436Y9355D01*
X6462Y9375D01*
X6481Y9400D01*
X6494Y9430D01*
X6498Y9461D01*
X6494Y9493D01*
X6481Y9523D01*
X6462Y9548D01*
X6436Y9568D01*
X6407Y9580D01*
X6393Y9582D01*
Y9595D01*
X6407Y9597D01*
X6436Y9609D01*
X6462Y9629D01*
X6481Y9654D01*
X6494Y9684D01*
X6498Y9715D01*
X6494Y9747D01*
X6481Y9777D01*
X6462Y9802D01*
X6436Y9822D01*
X6407Y9834D01*
X6393Y9836D01*
Y9849D01*
X6407Y9851D01*
X6436Y9863D01*
X6462Y9883D01*
X6481Y9908D01*
X6494Y9938D01*
X6498Y9969D01*
X6494Y10001D01*
X6481Y10031D01*
X6462Y10056D01*
X6436Y10076D01*
X6407Y10088D01*
X6393Y10090D01*
Y10103D01*
X6407Y10105D01*
X6436Y10117D01*
X6462Y10137D01*
X6481Y10162D01*
X6494Y10192D01*
X6498Y10224D01*
X6494Y10255D01*
X6481Y10285D01*
X6462Y10310D01*
X6436Y10330D01*
X6407Y10342D01*
X6393Y10344D01*
Y10357D01*
X6407Y10359D01*
X6436Y10371D01*
X6462Y10391D01*
X6481Y10416D01*
X6494Y10446D01*
X6498Y10478D01*
X6494Y10509D01*
X6481Y10539D01*
X6462Y10564D01*
X6436Y10584D01*
X6407Y10596D01*
X6393Y10598D01*
Y10611D01*
X6407Y10613D01*
X6436Y10625D01*
X6462Y10645D01*
X6481Y10670D01*
X6494Y10700D01*
X6498Y10732D01*
X6494Y10763D01*
X6481Y10793D01*
X6462Y10818D01*
X6436Y10838D01*
X6407Y10850D01*
X6393Y10852D01*
Y10865D01*
X6407Y10867D01*
X6436Y10879D01*
X6462Y10899D01*
X6481Y10924D01*
X6494Y10954D01*
X6497Y10980D01*
X6510Y10985D01*
X6598Y10897D01*
Y7459D01*
X6602Y7439D01*
X6613Y7423D01*
X6643Y7393D01*
X6643Y7393D01*
X6660Y7382D01*
X6680Y7378D01*
X8741D01*
X8745Y7368D01*
X8765Y7343D01*
X8790Y7323D01*
X8820Y7311D01*
X8852Y7307D01*
X8884Y7311D01*
X8913Y7323D01*
X8939Y7343D01*
X8958Y7368D01*
X8971Y7398D01*
X8975Y7429D01*
X8971Y7461D01*
X8958Y7491D01*
X8939Y7516D01*
X8913Y7536D01*
X8884Y7548D01*
X8870Y7550D01*
Y7563D01*
X8884Y7565D01*
X8913Y7577D01*
X8939Y7597D01*
X8958Y7622D01*
X8961Y7627D01*
X9038D01*
X9250Y7415D01*
X9247Y7409D01*
X9244Y7379D01*
X9247Y7349D01*
X9259Y7321D01*
X9278Y7296D01*
X9302Y7278D01*
X9330Y7266D01*
X9360Y7262D01*
X9390Y7266D01*
X9418Y7278D01*
X9442Y7296D01*
X9461Y7321D01*
X9472Y7349D01*
X9476Y7379D01*
X9472Y7409D01*
X9461Y7437D01*
X9442Y7461D01*
X9418Y7480D01*
X9390Y7491D01*
X9360Y7495D01*
X9330Y7491D01*
X9323Y7488D01*
X9277Y7535D01*
X9285Y7544D01*
X9302Y7532D01*
X9330Y7520D01*
X9360Y7516D01*
X9390Y7520D01*
X9418Y7532D01*
X9442Y7550D01*
X9461Y7575D01*
X9472Y7603D01*
X9476Y7633D01*
X9472Y7663D01*
X9461Y7691D01*
X9442Y7715D01*
X9418Y7734D01*
X9390Y7745D01*
X9360Y7749D01*
X9330Y7745D01*
X9323Y7742D01*
X9277Y7789D01*
X9285Y7798D01*
X9302Y7786D01*
X9330Y7774D01*
X9360Y7770D01*
X9390Y7774D01*
X9418Y7786D01*
X9442Y7804D01*
X9461Y7829D01*
X9472Y7857D01*
X9476Y7887D01*
X9472Y7917D01*
X9461Y7945D01*
X9442Y7969D01*
X9418Y7988D01*
X9390Y7999D01*
X9360Y8003D01*
X9330Y7999D01*
X9323Y7996D01*
X9277Y8043D01*
X9285Y8052D01*
X9302Y8040D01*
X9330Y8028D01*
X9360Y8024D01*
X9390Y8028D01*
X9418Y8040D01*
X9442Y8058D01*
X9461Y8083D01*
X9472Y8111D01*
X9476Y8141D01*
X9472Y8171D01*
X9461Y8199D01*
X9442Y8223D01*
X9418Y8242D01*
X9390Y8253D01*
X9360Y8257D01*
X9330Y8253D01*
X9302Y8242D01*
X9278Y8223D01*
X9259Y8199D01*
X9247Y8171D01*
X9244Y8141D01*
X9247Y8111D01*
X9259Y8083D01*
X9272Y8066D01*
X9262Y8058D01*
X9096Y8224D01*
X9079Y8235D01*
X9060Y8239D01*
X8964D01*
X8958Y8253D01*
X8939Y8278D01*
X8913Y8298D01*
X8884Y8310D01*
X8870Y8312D01*
Y8325D01*
X8884Y8327D01*
X8913Y8339D01*
X8939Y8359D01*
X8958Y8384D01*
X8971Y8414D01*
X8975Y8446D01*
X8971Y8477D01*
X8967Y8487D01*
X9232Y8752D01*
X9244Y8747D01*
Y8533D01*
X9475D01*
Y8764D01*
X9262D01*
X9256Y8777D01*
X9265Y8785D01*
X11693D01*
X11907Y8571D01*
Y7025D01*
X11712Y6830D01*
X11337D01*
X11317Y6826D01*
X11301Y6815D01*
X11082Y6596D01*
X11062Y6599D01*
X11037Y6595D01*
X11014Y6586D01*
X10994Y6570D01*
X10978Y6551D01*
X10969Y6527D01*
X10965Y6502D01*
X10969Y6477D01*
X10978Y6454D01*
X10994Y6434D01*
X11014Y6419D01*
X11037Y6409D01*
X11062Y6406D01*
X11087Y6409D01*
X11110Y6419D01*
X11130Y6434D01*
X11145Y6454D01*
X11155Y6477D01*
X11158Y6502D01*
X11155Y6523D01*
X11209Y6576D01*
X11220Y6571D01*
Y6407D01*
X11411D01*
Y6598D01*
X11247D01*
X11242Y6610D01*
X11359Y6726D01*
X11733D01*
X11753Y6730D01*
X11770Y6741D01*
X11996Y6967D01*
X12007Y6984D01*
X12011Y7004D01*
Y8592D01*
X12007Y8612D01*
X11996Y8629D01*
X11759Y8866D01*
X11764Y8878D01*
X12590D01*
X12611Y8857D01*
X12628Y8846D01*
X12648Y8842D01*
X13073D01*
X13093Y8846D01*
X13110Y8857D01*
X13177Y8925D01*
X13184Y8922D01*
X13214Y8918D01*
X13244Y8922D01*
X13272Y8933D01*
X13296Y8952D01*
X13315Y8976D01*
X13326Y9004D01*
X13330Y9034D01*
X13326Y9064D01*
X13315Y9092D01*
X13296Y9117D01*
X13272Y9135D01*
X13244Y9147D01*
X13214Y9151D01*
X13184Y9147D01*
X13156Y9135D01*
X13132Y9117D01*
X13113Y9092D01*
X13101Y9064D01*
X13098Y9034D01*
X13101Y9004D01*
X13104Y8998D01*
X13058Y8951D01*
X13048Y8960D01*
X13061Y8976D01*
X13072Y9004D01*
X13076Y9034D01*
X13072Y9064D01*
X13061Y9092D01*
X13042Y9117D01*
X13018Y9135D01*
X12990Y9147D01*
X12960Y9151D01*
X12930Y9147D01*
X12923Y9144D01*
X12741Y9327D01*
X12724Y9338D01*
X12704Y9342D01*
X9188D01*
X9169Y9338D01*
X9152Y9327D01*
X8973Y9148D01*
X8962Y9155D01*
X8971Y9176D01*
X8975Y9207D01*
X8971Y9239D01*
X8958Y9269D01*
X8939Y9294D01*
X8913Y9314D01*
X8884Y9326D01*
X8870Y9328D01*
Y9341D01*
X8884Y9343D01*
X8913Y9355D01*
X8939Y9375D01*
X8958Y9400D01*
X8971Y9430D01*
X8975Y9461D01*
X8971Y9493D01*
X8958Y9523D01*
X8939Y9548D01*
X8913Y9568D01*
X8884Y9580D01*
X8870Y9582D01*
Y9595D01*
X8884Y9597D01*
X8913Y9609D01*
X8939Y9629D01*
X8958Y9654D01*
X8971Y9684D01*
X8975Y9715D01*
X8971Y9747D01*
X8958Y9777D01*
X8939Y9802D01*
X8913Y9822D01*
X8884Y9834D01*
X8870Y9836D01*
Y9849D01*
X8884Y9851D01*
X8913Y9863D01*
X8939Y9883D01*
X8958Y9908D01*
X8971Y9938D01*
X8975Y9969D01*
X8971Y10001D01*
X8958Y10031D01*
X8939Y10056D01*
X8913Y10076D01*
X8884Y10088D01*
X8870Y10090D01*
Y10103D01*
X8884Y10105D01*
X8913Y10117D01*
X8939Y10137D01*
X8958Y10162D01*
X8971Y10192D01*
X8975Y10224D01*
X8971Y10255D01*
X8958Y10285D01*
X8939Y10310D01*
X8913Y10330D01*
X8884Y10342D01*
X8870Y10344D01*
Y10357D01*
X8884Y10359D01*
X8913Y10371D01*
X8939Y10391D01*
X8958Y10416D01*
X8971Y10446D01*
X8975Y10478D01*
X8971Y10509D01*
X8958Y10539D01*
X8939Y10564D01*
X8913Y10584D01*
X8884Y10596D01*
X8870Y10598D01*
Y10611D01*
X8884Y10613D01*
X8913Y10625D01*
X8939Y10645D01*
X8958Y10670D01*
X8971Y10700D01*
X8975Y10732D01*
X8971Y10763D01*
X8958Y10793D01*
X8939Y10818D01*
X8913Y10838D01*
X8884Y10850D01*
X8870Y10852D01*
Y10865D01*
X8884Y10867D01*
X8913Y10879D01*
X8939Y10899D01*
X8958Y10924D01*
X8971Y10954D01*
X8975Y10986D01*
X8971Y11017D01*
X8958Y11047D01*
X8939Y11072D01*
X8913Y11092D01*
X8884Y11104D01*
X8852Y11108D01*
X8820Y11104D01*
X8790Y11092D01*
X8765Y11072D01*
X8745Y11047D01*
X8733Y11017D01*
X8729Y10986D01*
X8733Y10954D01*
X8742Y10933D01*
X8731Y10926D01*
X8190Y11467D01*
X8173Y11478D01*
X8153Y11482D01*
D02*
G37*
G36*
X11560Y7495D02*
X11530Y7491D01*
X11502Y7480D01*
X11478Y7461D01*
X11459Y7437D01*
X11447Y7409D01*
X11444Y7379D01*
X11447Y7349D01*
X11459Y7321D01*
X11478Y7296D01*
X11502Y7278D01*
X11530Y7266D01*
X11560Y7262D01*
X11590Y7266D01*
X11618Y7278D01*
X11642Y7296D01*
X11661Y7321D01*
X11672Y7349D01*
X11676Y7379D01*
X11672Y7409D01*
X11661Y7437D01*
X11642Y7461D01*
X11618Y7480D01*
X11590Y7491D01*
X11560Y7495D01*
D02*
G37*
G36*
Y7241D02*
X11530Y7237D01*
X11502Y7226D01*
X11478Y7207D01*
X11459Y7183D01*
X11447Y7155D01*
X11444Y7125D01*
X11447Y7095D01*
X11459Y7067D01*
X11478Y7042D01*
X11502Y7024D01*
X11530Y7012D01*
X11560Y7008D01*
X11590Y7012D01*
X11618Y7024D01*
X11642Y7042D01*
X11661Y7067D01*
X11672Y7095D01*
X11676Y7125D01*
X11672Y7155D01*
X11661Y7183D01*
X11642Y7207D01*
X11618Y7226D01*
X11590Y7237D01*
X11560Y7241D01*
D02*
G37*
G36*
X10566Y6597D02*
Y6515D01*
X10648D01*
X10647Y6527D01*
X10637Y6551D01*
X10622Y6570D01*
X10602Y6586D01*
X10579Y6595D01*
X10566Y6597D01*
D02*
G37*
G36*
X10312D02*
Y6515D01*
X10394D01*
X10393Y6527D01*
X10383Y6551D01*
X10368Y6570D01*
X10348Y6586D01*
X10325Y6595D01*
X10312Y6597D01*
D02*
G37*
G36*
X10541D02*
X10529Y6595D01*
X10506Y6586D01*
X10486Y6570D01*
X10470Y6551D01*
X10461Y6527D01*
X10459Y6515D01*
X10541D01*
Y6597D01*
D02*
G37*
G36*
X10287D02*
X10275Y6595D01*
X10252Y6586D01*
X10232Y6570D01*
X10216Y6551D01*
X10207Y6527D01*
X10205Y6515D01*
X10287D01*
Y6597D01*
D02*
G37*
G36*
X3505Y6722D02*
X3255D01*
Y6472D01*
X3505D01*
Y6722D01*
D02*
G37*
G36*
X10648Y6490D02*
X10566D01*
Y6408D01*
X10579Y6409D01*
X10602Y6419D01*
X10622Y6434D01*
X10637Y6454D01*
X10647Y6477D01*
X10648Y6490D01*
D02*
G37*
G36*
X10394D02*
X10312D01*
Y6408D01*
X10325Y6409D01*
X10348Y6419D01*
X10368Y6434D01*
X10383Y6454D01*
X10393Y6477D01*
X10394Y6490D01*
D02*
G37*
G36*
X10541D02*
X10459D01*
X10461Y6477D01*
X10470Y6454D01*
X10486Y6434D01*
X10506Y6419D01*
X10529Y6409D01*
X10541Y6408D01*
Y6490D01*
D02*
G37*
G36*
X10287D02*
X10205D01*
X10207Y6477D01*
X10216Y6454D01*
X10232Y6434D01*
X10252Y6419D01*
X10275Y6409D01*
X10287Y6408D01*
Y6490D01*
D02*
G37*
G36*
X10808Y6599D02*
X10783Y6595D01*
X10760Y6586D01*
X10740Y6570D01*
X10724Y6551D01*
X10715Y6527D01*
X10712Y6504D01*
X10709Y6501D01*
X10706Y6499D01*
X10706Y6499D01*
X10130Y5923D01*
X10119Y5906D01*
X10115Y5887D01*
Y5824D01*
X10102Y5817D01*
X10094Y5824D01*
X10071Y5833D01*
X10046Y5837D01*
X10021Y5833D01*
X9998Y5824D01*
X9978Y5808D01*
X9962Y5789D01*
X9953Y5765D01*
X9949Y5740D01*
X9953Y5715D01*
X9962Y5692D01*
X9978Y5672D01*
X9998Y5657D01*
X10021Y5647D01*
X10046Y5644D01*
X10071Y5647D01*
X10094Y5657D01*
X10102Y5663D01*
X10115Y5657D01*
Y5556D01*
X9760Y5201D01*
X9170D01*
X9158Y5214D01*
Y5272D01*
X9206D01*
Y5472D01*
X9006D01*
Y5272D01*
X9054D01*
Y5192D01*
X9058Y5172D01*
X9069Y5155D01*
X9112Y5112D01*
X9129Y5101D01*
X9149Y5097D01*
X9781D01*
X9801Y5101D01*
X9818Y5112D01*
X10203Y5498D01*
X10214Y5515D01*
X10218Y5535D01*
Y5670D01*
X10230Y5674D01*
X10232Y5672D01*
X10252Y5657D01*
X10275Y5647D01*
X10287Y5646D01*
Y5740D01*
Y5835D01*
X10275Y5833D01*
X10252Y5824D01*
X10232Y5808D01*
X10230Y5807D01*
X10218Y5811D01*
Y5865D01*
X10769Y6415D01*
X10783Y6409D01*
X10808Y6406D01*
X10833Y6409D01*
X10856Y6419D01*
X10876Y6434D01*
X10891Y6454D01*
X10901Y6477D01*
X10904Y6502D01*
X10901Y6527D01*
X10891Y6551D01*
X10876Y6570D01*
X10856Y6586D01*
X10833Y6595D01*
X10808Y6599D01*
D02*
G37*
G36*
X9792D02*
X9767Y6595D01*
X9744Y6586D01*
X9724Y6570D01*
X9708Y6551D01*
X9699Y6527D01*
X9695Y6502D01*
X9699Y6477D01*
X9708Y6454D01*
X9724Y6434D01*
X9744Y6419D01*
X9767Y6409D01*
X9792Y6406D01*
X9817Y6409D01*
X9840Y6419D01*
X9860Y6434D01*
X9875Y6454D01*
X9885Y6477D01*
X9888Y6502D01*
X9885Y6527D01*
X9875Y6551D01*
X9860Y6570D01*
X9840Y6586D01*
X9817Y6595D01*
X9792Y6599D01*
D02*
G37*
G36*
X9538D02*
X9513Y6595D01*
X9490Y6586D01*
X9470Y6570D01*
X9454Y6551D01*
X9445Y6527D01*
X9441Y6502D01*
X9445Y6477D01*
X9454Y6454D01*
X9470Y6434D01*
X9490Y6419D01*
X9513Y6409D01*
X9538Y6406D01*
X9563Y6409D01*
X9586Y6419D01*
X9606Y6434D01*
X9621Y6454D01*
X9631Y6477D01*
X9634Y6502D01*
X9631Y6527D01*
X9621Y6551D01*
X9606Y6570D01*
X9586Y6586D01*
X9563Y6595D01*
X9538Y6599D01*
D02*
G37*
G36*
X5390Y6544D02*
X5358Y6540D01*
X5328Y6527D01*
X5302Y6508D01*
X5283Y6482D01*
X5270Y6452D01*
X5266Y6420D01*
X5270Y6388D01*
X5283Y6358D01*
X5302Y6332D01*
X5328Y6313D01*
X5358Y6300D01*
X5390Y6296D01*
X5422Y6300D01*
X5452Y6313D01*
X5478Y6332D01*
X5497Y6358D01*
X5510Y6388D01*
X5514Y6420D01*
X5510Y6452D01*
X5497Y6482D01*
X5478Y6508D01*
X5452Y6527D01*
X5422Y6540D01*
X5390Y6544D01*
D02*
G37*
G36*
X4170D02*
X4138Y6540D01*
X4108Y6527D01*
X4082Y6508D01*
X4063Y6482D01*
X4050Y6452D01*
X4046Y6420D01*
X4050Y6388D01*
X4063Y6358D01*
X4082Y6332D01*
X4108Y6313D01*
X4138Y6300D01*
X4170Y6296D01*
X4202Y6300D01*
X4232Y6313D01*
X4258Y6332D01*
X4277Y6358D01*
X4290Y6388D01*
X4294Y6420D01*
X4290Y6452D01*
X4277Y6482D01*
X4258Y6508D01*
X4232Y6527D01*
X4202Y6540D01*
X4170Y6544D01*
D02*
G37*
G36*
X6053Y6043D02*
X5867D01*
Y5857D01*
X6053D01*
Y6043D01*
D02*
G37*
G36*
X6460Y6044D02*
X6436Y6041D01*
X6413Y6031D01*
X6394Y6016D01*
X6379Y5997D01*
X6369Y5974D01*
X6366Y5950D01*
X6369Y5926D01*
X6379Y5903D01*
X6394Y5884D01*
X6413Y5869D01*
X6436Y5859D01*
X6460Y5856D01*
X6484Y5859D01*
X6507Y5869D01*
X6526Y5884D01*
X6541Y5903D01*
X6551Y5926D01*
X6554Y5950D01*
X6551Y5974D01*
X6541Y5997D01*
X6526Y6016D01*
X6507Y6031D01*
X6484Y6041D01*
X6460Y6044D01*
D02*
G37*
G36*
X8041Y6006D02*
X8016Y6003D01*
X7993Y5993D01*
X7973Y5978D01*
X7958Y5958D01*
X7948Y5935D01*
X7945Y5910D01*
X7948Y5885D01*
X7958Y5862D01*
X7973Y5842D01*
X7993Y5827D01*
X8016Y5817D01*
X8041Y5814D01*
X8066Y5817D01*
X8089Y5827D01*
X8109Y5842D01*
X8124Y5862D01*
X8134Y5885D01*
X8137Y5910D01*
X8134Y5935D01*
X8124Y5958D01*
X8109Y5978D01*
X8089Y5993D01*
X8066Y6003D01*
X8041Y6006D01*
D02*
G37*
G36*
X7279D02*
X7254Y6003D01*
X7231Y5993D01*
X7211Y5978D01*
X7196Y5958D01*
X7186Y5935D01*
X7183Y5910D01*
X7186Y5885D01*
X7196Y5862D01*
X7211Y5842D01*
X7231Y5827D01*
X7254Y5817D01*
X7279Y5814D01*
X7304Y5817D01*
X7327Y5827D01*
X7347Y5842D01*
X7362Y5862D01*
X7372Y5885D01*
X7375Y5910D01*
X7372Y5935D01*
X7362Y5958D01*
X7347Y5978D01*
X7327Y5993D01*
X7304Y6003D01*
X7279Y6006D01*
D02*
G37*
G36*
X9100Y5944D02*
X9076Y5941D01*
X9053Y5931D01*
X9034Y5916D01*
X9019Y5897D01*
X9009Y5874D01*
X9006Y5850D01*
X9009Y5826D01*
X9019Y5803D01*
X9034Y5784D01*
X9053Y5769D01*
X9076Y5759D01*
X9100Y5756D01*
X9124Y5759D01*
X9147Y5769D01*
X9166Y5784D01*
X9181Y5803D01*
X9191Y5826D01*
X9194Y5850D01*
X9191Y5874D01*
X9181Y5897D01*
X9166Y5916D01*
X9147Y5931D01*
X9124Y5941D01*
X9100Y5944D01*
D02*
G37*
G36*
X11074Y5835D02*
Y5753D01*
X11156D01*
X11155Y5765D01*
X11145Y5789D01*
X11130Y5808D01*
X11110Y5824D01*
X11087Y5833D01*
X11074Y5835D01*
D02*
G37*
G36*
X10566D02*
Y5753D01*
X10648D01*
X10647Y5765D01*
X10637Y5789D01*
X10622Y5808D01*
X10602Y5824D01*
X10579Y5833D01*
X10566Y5835D01*
D02*
G37*
G36*
X10312D02*
Y5753D01*
X10394D01*
X10393Y5765D01*
X10383Y5789D01*
X10368Y5808D01*
X10348Y5824D01*
X10325Y5833D01*
X10312Y5835D01*
D02*
G37*
G36*
X9804D02*
Y5753D01*
X9886D01*
X9885Y5765D01*
X9875Y5789D01*
X9860Y5808D01*
X9840Y5824D01*
X9817Y5833D01*
X9804Y5835D01*
D02*
G37*
G36*
X11049D02*
X11037Y5833D01*
X11014Y5824D01*
X10994Y5808D01*
X10978Y5789D01*
X10969Y5765D01*
X10967Y5753D01*
X11049D01*
Y5835D01*
D02*
G37*
G36*
X10541D02*
X10529Y5833D01*
X10506Y5824D01*
X10486Y5808D01*
X10470Y5789D01*
X10461Y5765D01*
X10459Y5753D01*
X10541D01*
Y5835D01*
D02*
G37*
G36*
X9779D02*
X9767Y5833D01*
X9744Y5824D01*
X9724Y5808D01*
X9708Y5789D01*
X9699Y5765D01*
X9697Y5753D01*
X9779D01*
Y5835D01*
D02*
G37*
G36*
X11156Y5728D02*
X11074D01*
Y5646D01*
X11087Y5647D01*
X11110Y5657D01*
X11130Y5672D01*
X11145Y5692D01*
X11155Y5715D01*
X11156Y5728D01*
D02*
G37*
G36*
X10648D02*
X10566D01*
Y5646D01*
X10579Y5647D01*
X10602Y5657D01*
X10622Y5672D01*
X10637Y5692D01*
X10647Y5715D01*
X10648Y5728D01*
D02*
G37*
G36*
X10394D02*
X10312D01*
Y5646D01*
X10325Y5647D01*
X10348Y5657D01*
X10368Y5672D01*
X10383Y5692D01*
X10393Y5715D01*
X10394Y5728D01*
D02*
G37*
G36*
X9886D02*
X9804D01*
Y5646D01*
X9817Y5647D01*
X9840Y5657D01*
X9860Y5672D01*
X9875Y5692D01*
X9885Y5715D01*
X9886Y5728D01*
D02*
G37*
G36*
X9632D02*
X9550D01*
Y5646D01*
X9563Y5647D01*
X9586Y5657D01*
X9606Y5672D01*
X9621Y5692D01*
X9631Y5715D01*
X9632Y5728D01*
D02*
G37*
G36*
X11049D02*
X10967D01*
X10969Y5715D01*
X10978Y5692D01*
X10994Y5672D01*
X11014Y5657D01*
X11037Y5647D01*
X11049Y5646D01*
Y5728D01*
D02*
G37*
G36*
X10541D02*
X10459D01*
X10461Y5715D01*
X10470Y5692D01*
X10486Y5672D01*
X10506Y5657D01*
X10529Y5647D01*
X10541Y5646D01*
Y5728D01*
D02*
G37*
G36*
X9779D02*
X9697D01*
X9699Y5715D01*
X9708Y5692D01*
X9724Y5672D01*
X9744Y5657D01*
X9767Y5647D01*
X9779Y5646D01*
Y5728D01*
D02*
G37*
G36*
X10046Y6599D02*
X10021Y6595D01*
X9998Y6586D01*
X9978Y6570D01*
X9962Y6551D01*
X9953Y6527D01*
X9949Y6502D01*
X9953Y6477D01*
X9962Y6454D01*
X9975Y6438D01*
X9323Y5787D01*
X9312Y5770D01*
X9308Y5750D01*
Y5459D01*
X9288Y5444D01*
X9272Y5423D01*
X9262Y5398D01*
X9259Y5372D01*
X9262Y5346D01*
X9272Y5321D01*
X9288Y5300D01*
X9309Y5284D01*
X9334Y5274D01*
X9360Y5271D01*
X9386Y5274D01*
X9411Y5284D01*
X9432Y5300D01*
X9448Y5321D01*
X9458Y5346D01*
X9461Y5372D01*
X9458Y5398D01*
X9448Y5423D01*
X9432Y5444D01*
X9412Y5459D01*
Y5729D01*
X9430Y5747D01*
X9442Y5741D01*
X9441Y5740D01*
X9445Y5715D01*
X9454Y5692D01*
X9470Y5672D01*
X9490Y5657D01*
X9513Y5647D01*
X9525Y5646D01*
Y5740D01*
X9538D01*
Y5753D01*
X9632D01*
X9631Y5765D01*
X9621Y5789D01*
X9606Y5808D01*
X9586Y5824D01*
X9563Y5833D01*
X9538Y5837D01*
X9537Y5836D01*
X9531Y5848D01*
X10065Y6382D01*
X10065Y6382D01*
X10076Y6399D01*
X10079Y6413D01*
X10094Y6419D01*
X10114Y6434D01*
X10129Y6454D01*
X10139Y6477D01*
X10142Y6502D01*
X10139Y6527D01*
X10129Y6551D01*
X10114Y6570D01*
X10094Y6586D01*
X10071Y6595D01*
X10046Y6599D01*
D02*
G37*
G36*
X11316Y5837D02*
X11291Y5833D01*
X11268Y5824D01*
X11248Y5808D01*
X11232Y5789D01*
X11223Y5765D01*
X11219Y5740D01*
X11223Y5715D01*
X11232Y5692D01*
X11248Y5672D01*
X11268Y5657D01*
X11291Y5647D01*
X11316Y5644D01*
X11341Y5647D01*
X11364Y5657D01*
X11384Y5672D01*
X11399Y5692D01*
X11409Y5715D01*
X11412Y5740D01*
X11409Y5765D01*
X11399Y5789D01*
X11384Y5808D01*
X11364Y5824D01*
X11341Y5833D01*
X11316Y5837D01*
D02*
G37*
G36*
X10808D02*
X10783Y5833D01*
X10760Y5824D01*
X10740Y5808D01*
X10724Y5789D01*
X10715Y5765D01*
X10711Y5740D01*
X10715Y5715D01*
X10724Y5692D01*
X10740Y5672D01*
X10760Y5657D01*
X10783Y5647D01*
X10808Y5644D01*
X10833Y5647D01*
X10856Y5657D01*
X10876Y5672D01*
X10891Y5692D01*
X10901Y5715D01*
X10904Y5740D01*
X10901Y5765D01*
X10891Y5789D01*
X10876Y5808D01*
X10856Y5824D01*
X10833Y5833D01*
X10808Y5837D01*
D02*
G37*
G36*
X7760Y5618D02*
X7732Y5614D01*
X7707Y5604D01*
X7685Y5587D01*
X7668Y5565D01*
X7657Y5539D01*
X7653Y5512D01*
X7657Y5484D01*
X7668Y5459D01*
X7685Y5437D01*
X7707Y5420D01*
X7732Y5409D01*
X7760Y5405D01*
X7787Y5409D01*
X7813Y5420D01*
X7835Y5437D01*
X7852Y5459D01*
X7862Y5484D01*
X7866Y5512D01*
X7862Y5539D01*
X7852Y5565D01*
X7835Y5587D01*
X7813Y5604D01*
X7787Y5614D01*
X7760Y5618D01*
D02*
G37*
G36*
X6363Y5605D02*
X6335Y5602D01*
X6310Y5591D01*
X6288Y5574D01*
X6271Y5552D01*
X6260Y5527D01*
X6256Y5499D01*
X6260Y5472D01*
X6271Y5446D01*
X6288Y5424D01*
X6310Y5407D01*
X6335Y5396D01*
X6363Y5393D01*
X6390Y5396D01*
X6416Y5407D01*
X6438Y5424D01*
X6455Y5446D01*
X6465Y5472D01*
X6469Y5499D01*
X6465Y5527D01*
X6455Y5552D01*
X6438Y5574D01*
X6416Y5591D01*
X6390Y5602D01*
X6363Y5605D01*
D02*
G37*
G36*
X3970Y7144D02*
X3938Y7140D01*
X3908Y7127D01*
X3882Y7108D01*
X3863Y7082D01*
X3850Y7052D01*
X3846Y7020D01*
X3850Y6988D01*
X3863Y6958D01*
X3882Y6932D01*
X3908Y6913D01*
X3918Y6908D01*
Y5770D01*
X3922Y5750D01*
X3933Y5733D01*
X4220Y5447D01*
Y5320D01*
X4420D01*
Y5520D01*
X4293D01*
X4022Y5791D01*
Y6908D01*
X4032Y6913D01*
X4058Y6932D01*
X4077Y6958D01*
X4090Y6988D01*
X4094Y7020D01*
X4090Y7052D01*
X4077Y7082D01*
X4058Y7108D01*
X4032Y7127D01*
X4002Y7140D01*
X3970Y7144D01*
D02*
G37*
G36*
X4574Y5521D02*
X4548Y5518D01*
X4523Y5508D01*
X4502Y5492D01*
X4486Y5471D01*
X4476Y5446D01*
X4473Y5420D01*
X4476Y5394D01*
X4486Y5369D01*
X4502Y5348D01*
X4523Y5332D01*
X4548Y5322D01*
X4574Y5319D01*
X4600Y5322D01*
X4625Y5332D01*
X4646Y5348D01*
X4662Y5369D01*
X4672Y5394D01*
X4675Y5420D01*
X4672Y5446D01*
X4662Y5471D01*
X4646Y5492D01*
X4625Y5508D01*
X4600Y5518D01*
X4574Y5521D01*
D02*
G37*
G36*
X7760Y5364D02*
X7732Y5360D01*
X7707Y5350D01*
X7685Y5333D01*
X7668Y5311D01*
X7657Y5285D01*
X7653Y5258D01*
X7657Y5230D01*
X7668Y5205D01*
X7685Y5183D01*
X7707Y5166D01*
X7732Y5155D01*
X7760Y5151D01*
X7787Y5155D01*
X7813Y5166D01*
X7835Y5183D01*
X7852Y5205D01*
X7862Y5230D01*
X7866Y5258D01*
X7862Y5285D01*
X7852Y5311D01*
X7835Y5333D01*
X7813Y5350D01*
X7787Y5360D01*
X7760Y5364D01*
D02*
G37*
G36*
X5059Y8166D02*
X5034Y8163D01*
X5011Y8153D01*
X4991Y8138D01*
X4976Y8118D01*
X4966Y8095D01*
X4963Y8070D01*
X4966Y8045D01*
X4976Y8022D01*
X4991Y8002D01*
X5011Y7987D01*
X5034Y7977D01*
X5037Y7977D01*
Y6221D01*
X5041Y6201D01*
X5052Y6184D01*
X6043Y5193D01*
X6060Y5182D01*
X6080Y5178D01*
X6281D01*
X6288Y5170D01*
X6310Y5153D01*
X6335Y5142D01*
X6363Y5139D01*
X6390Y5142D01*
X6416Y5153D01*
X6438Y5170D01*
X6455Y5192D01*
X6465Y5218D01*
X6469Y5245D01*
X6465Y5273D01*
X6455Y5298D01*
X6438Y5320D01*
X6416Y5337D01*
X6390Y5348D01*
X6363Y5351D01*
X6335Y5348D01*
X6310Y5337D01*
X6288Y5320D01*
X6271Y5298D01*
X6264Y5282D01*
X6101D01*
X5141Y6242D01*
Y8020D01*
X5142Y8022D01*
X5152Y8045D01*
X5155Y8070D01*
X5152Y8095D01*
X5142Y8118D01*
X5127Y8138D01*
X5107Y8153D01*
X5084Y8163D01*
X5059Y8166D01*
D02*
G37*
G36*
X14125Y5596D02*
X14075D01*
X14073Y5595D01*
X14070D01*
X14022Y5586D01*
X14020Y5585D01*
X14017Y5584D01*
X13972Y5565D01*
X13970Y5564D01*
X13967Y5563D01*
X13926Y5536D01*
X13924Y5534D01*
X13922Y5533D01*
X13888Y5498D01*
X13886Y5496D01*
X13884Y5494D01*
X13857Y5453D01*
X13856Y5450D01*
X13855Y5448D01*
X13836Y5403D01*
X13835Y5400D01*
X13834Y5398D01*
X13825Y5350D01*
Y5347D01*
X13824Y5345D01*
Y5295D01*
X13825Y5293D01*
Y5290D01*
X13834Y5242D01*
X13835Y5240D01*
X13836Y5237D01*
X13855Y5192D01*
X13856Y5190D01*
X13857Y5187D01*
X13884Y5146D01*
X13886Y5144D01*
X13888Y5142D01*
X13922Y5108D01*
X13924Y5106D01*
X13926Y5104D01*
X13967Y5077D01*
X13970Y5076D01*
X13972Y5075D01*
X14017Y5056D01*
X14020Y5055D01*
X14022Y5054D01*
X14070Y5045D01*
X14073D01*
X14075Y5044D01*
X14125D01*
X14127Y5045D01*
X14130D01*
X14178Y5054D01*
X14180Y5055D01*
X14183Y5056D01*
X14228Y5075D01*
X14230Y5076D01*
X14233Y5077D01*
X14274Y5104D01*
X14276Y5106D01*
X14278Y5108D01*
X14312Y5142D01*
X14314Y5144D01*
X14316Y5146D01*
X14343Y5187D01*
X14344Y5190D01*
X14345Y5192D01*
X14364Y5237D01*
X14365Y5240D01*
X14366Y5242D01*
X14375Y5290D01*
Y5293D01*
X14376Y5295D01*
Y5345D01*
X14375Y5347D01*
Y5350D01*
X14366Y5398D01*
X14365Y5400D01*
X14364Y5403D01*
X14345Y5448D01*
X14344Y5450D01*
X14343Y5453D01*
X14316Y5494D01*
X14314Y5496D01*
X14312Y5498D01*
X14278Y5533D01*
X14276Y5534D01*
X14274Y5536D01*
X14233Y5563D01*
X14230Y5564D01*
X14228Y5565D01*
X14183Y5584D01*
X14180Y5585D01*
X14178Y5586D01*
X14130Y5595D01*
X14127D01*
X14125Y5596D01*
D02*
G37*
G36*
X3205D02*
X3155D01*
X3153Y5595D01*
X3150D01*
X3102Y5586D01*
X3100Y5585D01*
X3097Y5584D01*
X3052Y5565D01*
X3050Y5564D01*
X3047Y5563D01*
X3006Y5536D01*
X3004Y5534D01*
X3002Y5533D01*
X2967Y5498D01*
X2966Y5496D01*
X2964Y5494D01*
X2937Y5453D01*
X2936Y5450D01*
X2935Y5448D01*
X2916Y5403D01*
X2915Y5400D01*
X2914Y5398D01*
X2905Y5350D01*
Y5347D01*
X2904Y5345D01*
Y5295D01*
X2905Y5293D01*
Y5290D01*
X2914Y5242D01*
X2915Y5240D01*
X2916Y5237D01*
X2935Y5192D01*
X2936Y5190D01*
X2937Y5187D01*
X2964Y5146D01*
X2966Y5144D01*
X2967Y5142D01*
X3002Y5108D01*
X3004Y5106D01*
X3006Y5104D01*
X3047Y5077D01*
X3050Y5076D01*
X3052Y5075D01*
X3097Y5056D01*
X3100Y5055D01*
X3102Y5054D01*
X3150Y5045D01*
X3153D01*
X3155Y5044D01*
X3205D01*
X3207Y5045D01*
X3210D01*
X3258Y5054D01*
X3260Y5055D01*
X3263Y5056D01*
X3308Y5075D01*
X3310Y5076D01*
X3313Y5077D01*
X3354Y5104D01*
X3356Y5106D01*
X3358Y5108D01*
X3392Y5142D01*
X3394Y5144D01*
X3396Y5146D01*
X3423Y5187D01*
X3424Y5190D01*
X3425Y5192D01*
X3444Y5237D01*
X3445Y5240D01*
X3446Y5242D01*
X3455Y5290D01*
Y5293D01*
X3456Y5295D01*
Y5345D01*
X3455Y5347D01*
Y5350D01*
X3446Y5398D01*
X3445Y5400D01*
X3444Y5403D01*
X3425Y5448D01*
X3424Y5450D01*
X3423Y5453D01*
X3396Y5494D01*
X3394Y5496D01*
X3392Y5498D01*
X3358Y5533D01*
X3356Y5534D01*
X3354Y5536D01*
X3313Y5563D01*
X3310Y5564D01*
X3308Y5565D01*
X3263Y5584D01*
X3260Y5585D01*
X3258Y5586D01*
X3210Y5595D01*
X3207D01*
X3205Y5596D01*
D02*
G37*
%LPD*%
G36*
X8737Y10773D02*
X8733Y10763D01*
X8729Y10732D01*
X8733Y10700D01*
X8745Y10670D01*
X8765Y10645D01*
X8790Y10625D01*
X8820Y10613D01*
X8834Y10611D01*
Y10598D01*
X8820Y10596D01*
X8790Y10584D01*
X8765Y10564D01*
X8745Y10539D01*
X8733Y10509D01*
X8729Y10478D01*
X8733Y10446D01*
X8745Y10416D01*
X8765Y10391D01*
X8790Y10371D01*
X8820Y10359D01*
X8834Y10357D01*
Y10344D01*
X8820Y10342D01*
X8790Y10330D01*
X8765Y10310D01*
X8745Y10285D01*
X8733Y10255D01*
X8729Y10224D01*
X8733Y10192D01*
X8742Y10171D01*
X8731Y10164D01*
X7588Y11307D01*
X7571Y11318D01*
X7551Y11322D01*
X4140D01*
X4120Y11318D01*
X4103Y11307D01*
X3445Y10648D01*
X3433Y10650D01*
X3428Y10663D01*
X4144Y11378D01*
X8132D01*
X8737Y10773D01*
D02*
G37*
G36*
X12789Y9132D02*
X12780Y9123D01*
X12764Y9135D01*
X12736Y9147D01*
X12706Y9151D01*
X12676Y9147D01*
X12648Y9135D01*
X12624Y9117D01*
X12605Y9092D01*
X12593Y9064D01*
X12590Y9034D01*
X12593Y9004D01*
X12598Y8992D01*
X12591Y8982D01*
X9082D01*
X9082Y8982D01*
X9063Y8978D01*
X9046Y8967D01*
X9046Y8967D01*
X8973Y8894D01*
X8962Y8901D01*
X8971Y8922D01*
X8975Y8954D01*
X8971Y8985D01*
X8967Y8995D01*
X9210Y9238D01*
X12683D01*
X12789Y9132D01*
D02*
G37*
G36*
X9199Y8866D02*
X8973Y8640D01*
X8962Y8647D01*
X8971Y8668D01*
X8975Y8700D01*
X8971Y8731D01*
X8967Y8741D01*
X9104Y8878D01*
X9193D01*
X9199Y8866D01*
D02*
G37*
G36*
X9250Y7923D02*
X9247Y7917D01*
X9244Y7887D01*
X9247Y7857D01*
X9259Y7829D01*
X9272Y7812D01*
X9262Y7804D01*
X9096Y7970D01*
X9079Y7981D01*
X9060Y7985D01*
X8964D01*
X8958Y7999D01*
X8939Y8024D01*
X8913Y8044D01*
X8884Y8056D01*
X8870Y8058D01*
Y8071D01*
X8884Y8073D01*
X8913Y8085D01*
X8939Y8105D01*
X8958Y8130D01*
X8961Y8135D01*
X9038D01*
X9250Y7923D01*
D02*
G37*
G36*
Y7669D02*
X9247Y7663D01*
X9244Y7633D01*
X9247Y7603D01*
X9259Y7575D01*
X9272Y7558D01*
X9262Y7550D01*
X9096Y7716D01*
X9079Y7727D01*
X9060Y7731D01*
X8964D01*
X8958Y7745D01*
X8939Y7770D01*
X8913Y7790D01*
X8884Y7802D01*
X8870Y7804D01*
Y7817D01*
X8884Y7819D01*
X8913Y7831D01*
X8939Y7851D01*
X8958Y7876D01*
X8961Y7881D01*
X9038D01*
X9250Y7669D01*
D02*
G37*
D13*
X2908Y12421D02*
G03*
X2781Y12294I0J-127D01*
G01*
Y5042D02*
G03*
X2908Y4915I127J0D01*
G01*
X14376D02*
G03*
X14503Y5042I0J127D01*
G01*
Y12294D02*
G03*
X14376Y12421I-127J0D01*
G01*
X2908Y4915D02*
X14376D01*
X2908Y12421D02*
X2984D01*
X2781Y5042D02*
Y12294D01*
X14503Y5042D02*
Y12294D01*
X2984Y12421D02*
X14376D01*
D14*
X3430Y12020D02*
G03*
X3430Y12020I-250J0D01*
G01*
Y5320D02*
G03*
X3430Y5320I-250J0D01*
G01*
X14350D02*
G03*
X14350Y5320I-250J0D01*
G01*
Y12020D02*
G03*
X14350Y12020I-250J0D01*
G01*
D34*
X8856Y7679D02*
X9060D01*
X8852Y7683D02*
X8856Y7679D01*
X9060D02*
X9360Y7379D01*
X10167Y5535D02*
Y5887D01*
X10742Y6462D01*
X10744D02*
X10784Y6502D01*
X10808D01*
X10742Y6462D02*
X10744D01*
X9781Y5149D02*
X10167Y5535D01*
X9149Y5149D02*
X9781D01*
X9106Y5192D02*
X9149Y5149D01*
X9106Y5192D02*
Y5372D01*
X12648Y8893D02*
X13073D01*
X9082Y8930D02*
X12611D01*
X8852Y8700D02*
X9082Y8930D01*
X12611D02*
X12648Y8893D01*
X11959Y7004D02*
Y8592D01*
X11733Y6778D02*
X11959Y7004D01*
X11337Y6778D02*
X11733D01*
X9243Y8837D02*
X11714D01*
X11959Y8592D01*
X8852Y8446D02*
X9243Y8837D01*
X11062Y6502D02*
X11337Y6778D01*
X9188Y9290D02*
X12704D01*
X8852Y8954D02*
X9188Y9290D01*
X12704D02*
X12960Y9034D01*
X6680Y7429D02*
X8852D01*
X6650Y7459D02*
X6680Y7429D01*
X9060Y7933D02*
X9360Y7633D01*
X8852Y7938D02*
X8856Y7933D01*
X9060D01*
X8852Y8192D02*
X8856Y8187D01*
X9060D01*
X9360Y7887D01*
X3294Y10602D02*
X4122Y11430D01*
X8153D01*
X8852Y10732D01*
X4140Y11270D02*
X7551D01*
X8852Y9969D01*
X3420Y10550D02*
X4140Y11270D01*
X6436Y11133D02*
X6650Y10919D01*
Y7459D02*
Y10919D01*
X9360Y5750D02*
X10029Y6419D01*
Y6485D02*
X10046Y6502D01*
X9360Y5372D02*
Y5750D01*
X10029Y6419D02*
Y6485D01*
X6243Y11133D02*
X6436D01*
X5059Y8070D02*
X5089Y8040D01*
X3294Y10422D02*
Y10602D01*
Y10422D02*
X3420Y10296D01*
X6090Y10980D02*
X6243Y11133D01*
X6090Y9155D02*
Y10980D01*
X6060Y9125D02*
X6090Y9155D01*
X5072Y10072D02*
X6018Y9125D01*
X6060D01*
X3420Y10042D02*
Y10072D01*
X3499D02*
X5072D01*
X3431Y10061D02*
X3489D01*
X3420Y10072D02*
X3431Y10061D01*
X3489D02*
X3499Y10072D01*
X6375Y7429D02*
X6834Y6970D01*
X7480D02*
X8600Y5850D01*
X6834Y6970D02*
X7480D01*
X3970Y5770D02*
X4320Y5420D01*
X3970Y5770D02*
Y7020D01*
X6348Y5230D02*
X6363Y5245D01*
X6080Y5230D02*
X6348D01*
X5089Y6221D02*
X6080Y5230D01*
X5089Y6221D02*
Y8040D01*
X13073Y8893D02*
X13214Y9034D01*
D35*
X9538Y5740D02*
D03*
X9792D02*
D03*
X10046D02*
D03*
X10300D02*
D03*
X10554D02*
D03*
X10808D02*
D03*
X11062D02*
D03*
X11316D02*
D03*
X9538Y6502D02*
D03*
X9792D02*
D03*
X10046D02*
D03*
X10300D02*
D03*
X10554D02*
D03*
X10808D02*
D03*
X11062D02*
D03*
X5821Y8070D02*
D03*
X5059D02*
D03*
X7279Y5910D02*
D03*
X8041D02*
D03*
X5059Y8490D02*
D03*
X5821D02*
D03*
D36*
X11316Y6502D02*
D03*
D37*
X9360Y8649D02*
D03*
X11560Y8395D02*
D03*
D38*
X9360Y8141D02*
D03*
Y8395D02*
D03*
Y7379D02*
D03*
Y7633D02*
D03*
Y7887D02*
D03*
X11560Y8141D02*
D03*
Y7887D02*
D03*
Y7633D02*
D03*
Y7379D02*
D03*
Y7125D02*
D03*
X12960Y9034D02*
D03*
X12706D02*
D03*
X13468D02*
D03*
X13214D02*
D03*
D39*
X6375Y10986D02*
D03*
Y10732D02*
D03*
Y10478D02*
D03*
Y10224D02*
D03*
Y9969D02*
D03*
Y9715D02*
D03*
Y9461D02*
D03*
Y9207D02*
D03*
Y8954D02*
D03*
Y8700D02*
D03*
Y8446D02*
D03*
Y8192D02*
D03*
Y7938D02*
D03*
Y7683D02*
D03*
Y7429D02*
D03*
X8852Y10986D02*
D03*
Y10732D02*
D03*
Y10478D02*
D03*
Y10224D02*
D03*
Y9969D02*
D03*
Y9715D02*
D03*
Y9461D02*
D03*
Y9207D02*
D03*
Y8954D02*
D03*
Y8700D02*
D03*
Y8446D02*
D03*
Y8192D02*
D03*
Y7938D02*
D03*
Y7683D02*
D03*
Y7429D02*
D03*
D40*
X13564Y11557D02*
D03*
X9464D02*
D03*
X13564Y9647D02*
D03*
X9464D02*
D03*
X3380Y6597D02*
D03*
D41*
X14280Y10680D02*
D03*
X3420Y9788D02*
D03*
Y10042D02*
D03*
Y10296D02*
D03*
Y10550D02*
D03*
X9360Y5372D02*
D03*
X4574Y5420D02*
D03*
D42*
X14280Y10934D02*
D03*
D43*
X5390Y6420D02*
D03*
Y7620D02*
D03*
X4170D02*
D03*
Y6420D02*
D03*
X3970Y7020D02*
D03*
D44*
X9100Y5850D02*
D03*
X6460Y5950D02*
D03*
D45*
X8600Y5850D02*
D03*
X5960Y5950D02*
D03*
D46*
X9106Y5372D02*
D03*
X4320Y5420D02*
D03*
D47*
X6363Y5245D02*
D03*
Y5499D02*
D03*
X7760Y5258D02*
D03*
Y5512D02*
D03*
D48*
X3380Y7643D02*
D03*
D49*
X3783Y8350D02*
D03*
X4037D02*
D03*
D50*
X3910D02*
D03*
M02*
